<svg width="12" height="12" viewBox="0 0 12 12" fill="none" xmlns="http://www.w3.org/2000/svg">
<path d="M12 5.66669C12.0023 6.5466 11.7967 7.41461 11.4 8.20002C10.9296 9.14118 10.2065 9.9328 9.31163 10.4862C8.41677 11.0396 7.3855 11.3329 6.33333 11.3334C5.45342 11.3356 4.58541 11.1301 3.8 10.7334L0 12L1.26667 8.20002C0.869954 7.41461 0.664373 6.5466 0.666667 5.66669C0.667074 4.61452 0.960408 3.58325 1.51381 2.68839C2.06722 1.79352 2.85884 1.0704 3.8 0.600019C4.58541 0.203306 5.45342 -0.00227518 6.33333 1.89921e-05H6.66667C8.05623 0.0766802 9.3687 0.663193 10.3528 1.64726C11.3368 2.63132 11.9233 3.94379 12 5.33335V5.66669Z" fill="#0275B1"/>
</svg>
