<svg width="14" height="14" viewBox="0 0 14 14" fill="none" xmlns="http://www.w3.org/2000/svg">
<path d="M8.33337 5.00004V2.33337C8.33337 1.80294 8.12266 1.29423 7.74759 0.919161C7.37252 0.544088 6.86381 0.333374 6.33337 0.333374L3.66671 6.33337V13.6667H11.1867C11.5083 13.6703 11.8203 13.5576 12.0653 13.3494C12.3103 13.1411 12.4718 12.8513 12.52 12.5334L13.44 6.53337C13.469 6.34228 13.4562 6.14716 13.4023 5.96154C13.3484 5.77592 13.2548 5.60424 13.1279 5.45838C13.0011 5.31253 12.8441 5.196 12.6678 5.11685C12.4914 5.03771 12.3 4.99785 12.1067 5.00004H8.33337ZM3.66671 13.6667H1.66671C1.31309 13.6667 0.973947 13.5262 0.723898 13.2762C0.47385 13.0261 0.333374 12.687 0.333374 12.3334V7.66671C0.333374 7.31309 0.47385 6.97395 0.723898 6.7239C0.973947 6.47385 1.31309 6.33337 1.66671 6.33337H3.66671" fill="#0275B1"/>
</svg>
